<svg xmlns="http://www.w3.org/2000/svg" width="48" height="36" viewBox="0 0 48 36" shape-rendering="crispEdges">

<g>
<rect x="15" y="2" width="13" height="3" fill="#4b261f"/>
<rect x="11" y="5" width="19" height="8" fill="#b96843"/>
<rect x="14" y="7" width="13" height="7" fill="#f0ad76"/>
<rect x="25" y="8" width="4" height="2" fill="#171522"/>
<rect x="10" y="6" width="5" height="3" fill="#e43b30"/>
<rect x="8" y="9" width="7" height="3" fill="#e43b30"/>
<rect x="12" y="13" width="14" height="3" fill="#171522"/>
<rect x="9" y="14" width="9" height="4" fill="#34452c"/>
<rect x="18" y="15" width="10" height="7" fill="#34452c"/>
<rect x="24" y="16" width="8" height="5" fill="#222c24"/>
<rect x="28" y="15" width="11" height="5" fill="#5b6678"/>
<rect x="37" y="16" width="8" height="3" fill="#242a35"/>
<rect x="39" y="16" width="4" height="2" fill="#e43b30"/>
<rect x="13" y="18" width="7" height="7" fill="#4a5d34"/>
<rect x="20" y="20" width="7" height="7" fill="#3c4d2c"/>
</g>

<rect x="12" y="24" width="6" height="7" fill="#20283a"/>
<rect x="8" y="30" width="11" height="4" fill="#171522"/>
<rect x="23" y="25" width="6" height="6" fill="#20283a"/>
<rect x="27" y="30" width="10" height="4" fill="#171522"/>

</svg>