<svg xmlns="http://www.w3.org/2000/svg" width="24" height="18" viewBox="0 0 24 18" shape-rendering="crispEdges">
<rect x="9" y="0" width="3" height="3" fill="#22c55e"/>
<rect x="12" y="0" width="3" height="3" fill="#22c55e"/>
<rect x="6" y="3" width="3" height="3" fill="#22c55e"/>
<rect x="9" y="3" width="3" height="3" fill="#15803d"/>
<rect x="12" y="3" width="3" height="3" fill="#15803d"/>
<rect x="15" y="3" width="3" height="3" fill="#22c55e"/>
<rect x="3" y="6" width="3" height="3" fill="#22c55e"/>
<rect x="6" y="6" width="3" height="3" fill="#15803d"/>
<rect x="9" y="6" width="3" height="3" fill="#052e16"/>
<rect x="12" y="6" width="3" height="3" fill="#052e16"/>
<rect x="15" y="6" width="3" height="3" fill="#15803d"/>
<rect x="18" y="6" width="3" height="3" fill="#22c55e"/>
<rect x="0" y="9" width="3" height="3" fill="#22c55e"/>
<rect x="3" y="9" width="3" height="3" fill="#15803d"/>
<rect x="6" y="9" width="3" height="3" fill="#15803d"/>
<rect x="9" y="9" width="3" height="3" fill="#052e16"/>
<rect x="12" y="9" width="3" height="3" fill="#052e16"/>
<rect x="15" y="9" width="3" height="3" fill="#15803d"/>
<rect x="18" y="9" width="3" height="3" fill="#15803d"/>
<rect x="21" y="9" width="3" height="3" fill="#22c55e"/>
<rect x="0" y="12" width="3" height="3" fill="#22c55e"/>
<rect x="3" y="12" width="3" height="3" fill="#15803d"/>
<rect x="6" y="12" width="3" height="3" fill="#15803d"/>
<rect x="9" y="12" width="3" height="3" fill="#15803d"/>
<rect x="12" y="12" width="3" height="3" fill="#15803d"/>
<rect x="15" y="12" width="3" height="3" fill="#15803d"/>
<rect x="18" y="12" width="3" height="3" fill="#15803d"/>
<rect x="21" y="12" width="3" height="3" fill="#22c55e"/>
<rect x="3" y="15" width="3" height="3" fill="#22c55e"/>
<rect x="6" y="15" width="3" height="3" fill="#15803d"/>
<rect x="9" y="15" width="3" height="3" fill="#15803d"/>
<rect x="12" y="15" width="3" height="3" fill="#15803d"/>
<rect x="15" y="15" width="3" height="3" fill="#15803d"/>
<rect x="18" y="15" width="3" height="3" fill="#22c55e"/>
</svg>
